<svg width="1920" height="351" viewBox="0 0 1920 351" fill="none" xmlns="http://www.w3.org/2000/svg">
<g clip-path="url(#clip0_56_49)">
<path d="M0 33H1920V351H0V33Z" fill="#FFBE99"/>
<path d="M1918 46.5129C1891.36 65.1559 1864.72 65.1559 1838.08 46.5129C1811.44 27.8699 1784.81 27.8699 1758.17 46.5129C1731.53 65.1559 1704.89 65.1559 1678.25 46.5129C1651.61 27.8699 1624.97 27.8699 1598.33 46.5129C1571.69 65.1559 1545.06 65.1559 1518.42 46.5129C1491.78 27.8699 1465.14 27.8699 1438.5 46.5129C1411.86 65.1559 1385.22 65.1559 1358.58 46.5129C1331.94 27.8699 1305.31 27.8699 1278.67 46.5129C1252.03 65.1559 1225.39 65.1559 1198.75 46.5129C1172.11 27.8699 1145.47 27.8699 1118.83 46.5129C1092.19 65.1559 1065.56 65.1559 1038.92 46.5129C1012.28 27.8699 985.639 27.8699 959 46.5129C932.361 65.1559 905.722 65.1559 879.083 46.5129C852.444 27.8699 825.806 27.8699 799.167 46.5129C772.528 65.1559 745.889 65.1559 719.25 46.5129C692.611 27.8699 665.972 27.8699 639.333 46.5129C612.695 65.1559 586.056 65.1559 559.417 46.5129C532.778 27.8699 506.139 27.8699 479.5 46.5129C452.861 65.1559 426.222 65.1559 399.583 46.5129C372.945 27.8699 346.306 27.8699 319.667 46.5129C293.028 65.1559 266.389 65.1559 239.75 46.5129C213.111 27.8699 186.472 27.8699 159.833 46.5129C133.195 65.1559 106.556 65.1559 79.9167 46.5129C53.2779 27.8699 26.639 27.8699 8.67844e-05 46.5129" stroke="#FFBE99" stroke-width="5" stroke-linecap="round"/>
<path d="M1918 30.9821C1891.36 49.6251 1864.72 49.6251 1838.08 30.9821C1811.44 12.3392 1784.81 12.3392 1758.17 30.9821C1731.53 49.6251 1704.89 49.6251 1678.25 30.9821C1651.61 12.3392 1624.97 12.3392 1598.33 30.9821C1571.69 49.6251 1545.06 49.6251 1518.42 30.9821C1491.78 12.3392 1465.14 12.3392 1438.5 30.9821C1411.86 49.6251 1385.22 49.6251 1358.58 30.9821C1331.94 12.3392 1305.31 12.3392 1278.67 30.9821C1252.03 49.6251 1225.39 49.6251 1198.75 30.9821C1172.11 12.3392 1145.47 12.3392 1118.83 30.9821C1092.19 49.6251 1065.56 49.6251 1038.92 30.9821C1012.28 12.3392 985.639 12.3392 959 30.9821C932.361 49.6251 905.722 49.6251 879.083 30.9821C852.444 12.3392 825.806 12.3392 799.167 30.9821C772.528 49.6251 745.889 49.6251 719.25 30.9821C692.611 12.3392 665.972 12.3392 639.333 30.9821C612.695 49.6251 586.056 49.6251 559.417 30.9821C532.778 12.3392 506.139 12.3392 479.5 30.9821C452.861 49.6251 426.222 49.6251 399.583 30.9821C372.945 12.3392 346.306 12.3392 319.667 30.9821C293.028 49.6251 266.389 49.6251 239.75 30.9821C213.111 12.3392 186.472 12.3392 159.833 30.9821C133.195 49.6251 106.556 49.6251 79.9167 30.9821C53.2779 12.3392 26.639 12.3392 8.67844e-05 30.9821" stroke="#FFBE99" stroke-width="31" stroke-linecap="round"/>
</g>
<defs>
<clipPath id="clip0_56_49">
<rect width="1920" height="351" fill="white"/>
</clipPath>
</defs>
</svg>
